<svg xmlns="http://www.w3.org/2000/svg" height="20" viewBox="0 -960 960 960" width="20"><path d="M254.495-270.115q54.543-35.193 108.486-51.924 53.942-16.73 117.019-16.73 63.077 0 117.019 16.73 53.943 16.731 108.943 51.924 40.346-41.731 61.653-95.165 21.308-53.434 21.308-114.659 0-128.621-90.249-218.802-90.249-90.182-218.904-90.182t-218.674 90.182q-90.019 90.181-90.019 218.802 0 61.225 21.308 114.659 21.307 53.434 62.11 95.165Zm225.639-159.116q-51.442 0-87.173-35.597-35.73-35.597-35.73-87.038 0-51.442 35.597-87.173 35.597-35.73 87.038-35.73 51.442 0 87.173 35.597 35.73 35.597 35.73 87.038 0 51.442-35.597 87.173-35.597 35.73-87.038 35.73Zm.142 287.077q-69.875 0-131.687-26.186-61.813-26.186-107.951-72.423Q194.5-287 168.327-348.699q-26.173-61.7-26.173-131.952 0-70.333 26.186-131.453 26.186-61.12 72.423-107.258t107.936-72.311q61.7-26.173 131.952-26.173 70.333 0 131.453 26.186 61.12 26.186 107.258 72.423t72.311 107.477q26.173 61.239 26.173 131.484 0 69.875-26.186 131.687-26.186 61.813-72.423 107.951Q673-194.5 611.76-168.327q-61.239 26.173-131.484 26.173Zm-.299-28.923q53.715 0 107.388-20.038 53.673-20.039 96.789-56.654-44.116-28.808-95.458-45.442-51.342-16.635-108.613-16.635T370.06-294.538q-52.752 15.307-94.214 46.769 43.116 36.615 96.766 56.654 53.65 20.038 107.365 20.038ZM480-458.154q38.192 0 66.019-27.827 27.827-27.827 27.827-66.019 0-38.192-27.827-66.019-27.827-27.827-66.019-27.827-38.192 0-66.019 27.827-27.827 27.827-27.827 66.019 0 38.192 27.827 66.019 27.827 27.827 66.019 27.827ZM480-552Zm0 306.539Z"/></svg>