<svg width="35" height="36" viewBox="0 0 35 36" fill="none" xmlns="http://www.w3.org/2000/svg">
<g id="facebook (2) 1" clip-path="url(#clip0_66_1146)">
<path id="Vector" d="M35 17.7565C35 26.4904 28.5921 33.7311 20.2271 35.045V22.849H24.2944L25.0688 17.8031H20.2271V14.5292C20.2271 13.1481 20.9037 11.8036 23.0708 11.8036H25.2715V7.5073C25.2715 7.5073 23.2735 7.16605 21.3646 7.16605C17.3775 7.16605 14.7729 9.58251 14.7729 13.9561V17.8017H10.341V22.8475H14.7729V35.0436C6.40938 33.7281 0 26.489 0 17.7565C0 8.0921 7.83563 0.25647 17.5 0.25647C27.1644 0.25647 35 8.09064 35 17.7565Z" fill="#444444"/>
</g>
<defs>
<clipPath id="clip0_66_1146">
<rect width="35" height="35" fill="white" transform="translate(0 0.150024)"/>
</clipPath>
</defs>
</svg>
