<svg width="35" height="36" viewBox="0 0 35 36" fill="none" xmlns="http://www.w3.org/2000/svg">
<g id="instagram (1) 1" clip-path="url(#clip0_66_1137)">
<g id="Group">
<path id="Vector" d="M17.5 3.30294C22.1725 3.30294 22.7267 3.32044 24.5715 3.40502C26.479 3.49252 28.4433 3.92711 29.8331 5.3169C31.236 6.71982 31.6575 8.66523 31.745 10.5786C31.8296 12.4234 31.8471 12.9775 31.8471 17.65C31.8471 22.3225 31.8296 22.8767 31.745 24.7215C31.659 26.6188 31.2142 28.6021 29.8331 29.9832C28.4302 31.3861 26.4863 31.8075 24.5715 31.895C22.7267 31.9796 22.1725 31.9971 17.5 31.9971C12.8275 31.9971 12.2733 31.9796 10.4285 31.895C8.54583 31.809 6.53625 31.354 5.16687 29.9832C3.77125 28.5875 3.3425 26.6232 3.255 24.7215C3.17042 22.8767 3.15292 22.3225 3.15292 17.65C3.15292 12.9775 3.17042 12.4234 3.255 10.5786C3.34104 8.68857 3.79021 6.69357 5.16687 5.3169C6.56687 3.9169 8.51958 3.49252 10.4285 3.40502C12.2733 3.32044 12.8275 3.30294 17.5 3.30294ZM17.5 0.150024C12.7473 0.150024 12.1508 0.170441 10.2842 0.255024C7.57896 0.378983 4.89271 1.13148 2.93708 3.08711C0.974167 5.05002 0.228958 7.73044 0.105 10.4342C0.0204167 12.3009 0 12.8973 0 17.65C0 22.4027 0.0204167 22.9992 0.105 24.8659C0.228958 27.5681 0.984375 30.2617 2.93708 32.2129C4.89854 34.1744 7.58333 34.9211 10.2842 35.045C12.1508 35.1296 12.7473 35.15 17.5 35.15C22.2527 35.15 22.8492 35.1296 24.7158 35.045C27.4196 34.9211 30.1088 34.1671 32.0629 32.2129C34.0273 30.2486 34.771 27.5696 34.895 24.8659C34.9796 22.9992 35 22.4027 35 17.65C35 12.8973 34.9796 12.3009 34.895 10.4342C34.771 7.72898 34.0171 5.04127 32.0629 3.08711C30.1044 1.12857 27.4123 0.377524 24.7158 0.255024C22.8492 0.170441 22.2527 0.150024 17.5 0.150024Z" fill="#444444"/>
<path id="Vector_2" d="M17.4999 8.66382C12.5372 8.66382 8.51367 12.6874 8.51367 17.6501C8.51367 22.6128 12.5372 26.6363 17.4999 26.6363C22.4626 26.6363 26.4862 22.6128 26.4862 17.6501C26.4862 12.6874 22.4626 8.66382 17.4999 8.66382ZM17.4999 23.4834C14.2785 23.4834 11.6666 20.8715 11.6666 17.6501C11.6666 14.4286 14.2785 11.8167 17.4999 11.8167C20.7214 11.8167 23.3333 14.4286 23.3333 17.6501C23.3333 20.8715 20.7214 23.4834 17.4999 23.4834Z" fill="#444444"/>
<path id="Vector_3" d="M26.8422 10.4079C28.002 10.4079 28.9422 9.46768 28.9422 8.30789C28.9422 7.14809 28.002 6.20789 26.8422 6.20789C25.6824 6.20789 24.7422 7.14809 24.7422 8.30789C24.7422 9.46768 25.6824 10.4079 26.8422 10.4079Z" fill="#444444"/>
</g>
</g>
<defs>
<clipPath id="clip0_66_1137">
<rect width="35" height="35" fill="white" transform="translate(0 0.150024)"/>
</clipPath>
</defs>
</svg>
