<svg xmlns="http://www.w3.org/2000/svg" height="20" viewBox="0 -960 960 960" width="20"><path d="M238.154-142.154v-509.539h119.577v-35.999q0-51.693 33.858-90.924 33.858-39.23 88.481-39.23 51.622 0 87.103 35.304 35.481 35.303 35.481 86.85v43.999h119.192v509.539H238.154Zm28.923-28.923h425.846v-451.692h-90.269v96h-28.923v-96H386.654v96h-28.923v-96h-90.654v451.692Zm119.577-480.616h187.077v-43.999q0-39.547-27.085-66.389t-66.789-26.842q-39.703 0-66.453 26.896t-26.75 66.335v43.999ZM267.077-171.077v-451.692 451.692Z"/></svg>