<svg width="35" height="36" viewBox="0 0 35 36" fill="none" xmlns="http://www.w3.org/2000/svg">
<g id="tik-tok 1" clip-path="url(#clip0_66_1143)">
<path id="Vector" d="M32.7615 14.5379C29.6421 14.5379 26.7502 13.5404 24.3906 11.8459V24.074C24.3906 30.1815 19.4221 35.1486 13.316 35.1486C10.9565 35.1486 8.7675 34.4048 6.96937 33.1419C4.11395 31.1367 2.24146 27.8204 2.24146 24.074C2.24146 17.9665 7.21 12.9979 13.3175 12.9979C13.825 12.9979 14.3208 13.0402 14.8094 13.1059V14.5307V19.2484C14.3369 19.1011 13.8381 19.015 13.3175 19.015C10.5292 19.015 8.26 21.2842 8.26 24.074C8.26 26.0165 9.3625 27.7038 10.9725 28.5511C11.674 28.92 12.4717 29.1315 13.319 29.1315C16.0431 29.1315 18.2656 26.9644 18.3677 24.2636L18.3721 0.150024H24.3892C24.3892 0.672108 24.4402 1.18107 24.5306 1.6769C24.955 3.9694 26.3156 5.93669 28.2012 7.16607C29.5137 8.02211 31.08 8.52232 32.76 8.52232L32.7615 14.5379Z" fill="#444444"/>
</g>
<defs>
<clipPath id="clip0_66_1143">
<rect width="35" height="35" fill="white" transform="translate(0 0.150024)"/>
</clipPath>
</defs>
</svg>
